<?xml version="1.0" encoding="iso-8859-1"?>
<!DOCTYPE svg PUBLIC "-//W3C//DTD SVG 1.1//EN" "http://www.w3.org/Graphics/SVG/1.1/DTD/svg11.dtd">
<svg version="1.1" id="Capa_1" xmlns="http://www.w3.org/2000/svg" xmlns:xlink="http://www.w3.org/1999/xlink" x="0px" y="0px"
	 width="30.317px" height="30.317px" viewBox="0 0 94.317 94.317" style="enable-background:new 0 0 94.317 94.317;"
	 xml:space="preserve">
<g>
	<g>
		<path d="M64.769,68.729c-1.715-2.557-3.514-4.981-5.518-7.663c-0.704-0.94-0.784-1.677-0.297-2.714
			c2.152-4.574,2.822-9.75,2.053-15.823c-0.678-5.339-2.328-9.788-5.046-13.603c-0.084-0.116-0.175-0.227-0.271-0.336
			c-0.082-0.097-0.385-0.413-0.748-0.413c-0.062,0-0.16,0.018-0.22,0.041c-0.39,0.154-0.46,0.572-0.268,1.597
			c0.086,0.462,0.208,0.942,0.521,1.321c1.954,2.376,3.151,5.242,3.879,9.292c0.912,5.067,0.627,9.512-0.871,13.588
			c-0.24,0.657-0.562,1.312-0.871,1.944l-0.176,0.359c-1.152,2.376-0.896,4.622,0.743,6.496c3.451,3.945,6.267,8.401,8.367,13.244
			c0.408,0.939,0.487,2.086,0.565,3.195l0.016,0.229c0.016,0.218-0.221,0.646-0.527,0.954c-3.834,3.846-7.025,7.006-10.045,9.943
			c-1.502,1.462-3.807,1.718-5.601,0.626c-1.177-0.717-2.427-0.801-3.887-0.248l-0.307,0.116c-0.52,0.197-1.04,0.396-1.573,0.559
			c-0.793,0.242-1.46,0.125-2.056-0.368c-0.726-0.601-0.85-1.039-0.489-1.739c0.418-0.815,1.027-1.58,1.619-2.324
			c0.295-0.371,0.644-0.704,1.012-1.058c0.146-0.139,0.292-0.277,0.435-0.42c0.271-0.271,0.681-0.678,0.811-0.678
			c0.142,0,0.576,0.354,0.924,0.637c0.446,0.365,0.908,0.712,1.372,1.058c0.527,0.393,0.926,0.592,1.184,0.592
			c0.129,0,0.292-0.062,0.385-0.15c0.32-0.307,0.258-1.142,0.09-1.626c-0.25-0.715-0.742-1.346-1.509-1.927
			c-1.113-0.849-1.814-1.279-2.557-1.279c-0.861,0-1.557,0.596-2.467,1.622c-1.731,1.954-3.279,4.178-4.646,6.142
			c-0.432,0.618-0.568,1.187-0.407,1.686c0.164,0.507,0.621,0.896,1.358,1.153c1.311,0.46,2.748,0.876,4.392,1.271
			c0.21,0.051,0.424,0.076,0.635,0.076c0.974,0,1.774-0.526,2.494-1.096c0.504-0.398,0.931-0.413,1.343-0.007
			c0.901,0.889,2.031,1.32,3.453,1.32c0.354,0,0.715-0.025,1.078-0.067c1.979-0.233,3.631-0.997,4.908-2.271
			c1.234-1.229,2.46-2.471,3.686-3.712c1.901-1.927,3.869-3.919,5.843-5.837c1.42-1.38,1.849-3.004,1.349-5.111
			C68.153,74.068,66.472,71.27,64.769,68.729z"/>
		<path d="M85.467,75.062c-0.306-0.455-0.271-0.771-0.114-1.382c0.344-1.351,0.729-2.881,0.81-4.43
			c0.1-1.952-0.691-3.806-2.353-5.504c-3.248-3.326-5.798-5.82-8.267-8.086c-1.729-1.59-3.906-2.317-5.808-2.821
			c-1.183-0.313-2.358-0.79-3.496-1.251c-0.604-0.243-1.205-0.487-1.814-0.712c-0.318-0.117-0.646-0.216-0.975-0.312
			c-0.385-0.109-0.744-0.173-0.99-0.173c-0.389,0-0.555,0.179-0.63,0.335c-0.134,0.29-0.112,0.653,0.946,1.337l2.771,1.798
			c0.617,0.404,1.234,0.811,1.938,1.254c0.295,0.188,0.627,0.4,1.021,0.454c2.789,0.38,5.322,1.691,7.97,4.127
			c1.393,1.279,2.76,2.64,4.08,3.953c0.619,0.616,1.238,1.231,1.862,1.842c1.918,1.876,2.356,3.946,1.304,6.153
			c-1.089,2.284-1.025,4.069,0.204,5.787c0.024,0.033,0.054,0.149,0.071,0.228l0.033,0.135c0.236,0.864,0.195,1.096,0.149,1.155
			c-0.046,0.062-0.253,0.163-1.135,0.176c-0.206,0.003-0.413,0.009-0.621,0.016c-0.729,0.022-1.442,0.023-1.961-0.066
			c-2.019-0.345-2.099-0.624-1.788-2.654c0.094-0.607,0.278-1.202,0.475-1.832c0.099-0.316,0.196-0.633,0.283-0.953
			c0.039-0.144,0.03-0.271,0.021-0.42c-0.02-0.264-0.27-0.506-0.532-0.506c-0.138,0-0.42,0-0.976,0.815
			c-0.974,1.431-2.049,3.383-1.737,5.818c0.065,0.52,0.522,1.238,1.071,1.438c0.914,0.336,2.123,0.742,3.373,0.901
			c0.965,0.123,1.943,0.174,2.892,0.224c0.731,0.037,1.463,0.075,2.19,0.146c0.08,0.008,0.156,0.011,0.229,0.011
			c0.529,0,0.833-0.207,0.994-0.381c0.162-0.175,0.348-0.495,0.309-1.026c-0.066-0.885-0.177-1.922-0.49-2.903
			C86.481,76.829,86.028,75.898,85.467,75.062z"/>
		<path d="M68.594,21.299c-0.22-0.814-0.604-1.56-1.101-2.239c-0.321-0.439-0.862-0.656-1.368-0.359
			c-0.435,0.254-0.681,0.927-0.358,1.368c0.398,0.546,0.723,1.106,0.898,1.761C67,23.075,68.929,22.546,68.594,21.299z"/>
		<path d="M49.657,66.353C37.224,73.051,23.66,76.889,9.597,78.03c-1.286,0.104-1.04,2.091,0.244,1.985
			c14.222-1.155,27.985-5.032,40.562-11.808C51.524,67.604,50.794,65.739,49.657,66.353z"/>
		<path d="M35.006,43.208c0.42-0.029,0.66-0.267,0.77-0.561c0.179,0.016,0.278-0.092,0.211-0.333
			c-0.065-0.236-0.131-0.472-0.2-0.708c-2.132-7.275-2.499-14.615-0.686-22.003c1.092-4.454,2.894-8.575,6.125-11.944
			c1.501-1.565,3.266-2.678,5.397-3.219c4.044-1.027,8.125-1.911,12.31-1.767c2.723,0.094,5.432,0.583,8.143,0.925
			c0.469,0.059,0.932,0.154,1.404,0.256c0.541,0.117,0.746,0.591,0.459,1.062c-0.193,0.317-0.375,0.628-0.533,0.951
			C68,6.706,68.082,7.51,68.872,8.094c0.498,0.368,0.695,0.802,0.684,1.408c-0.043,2.247,0.016,4.499-0.107,6.742
			c-0.111,2.014,0.183,3.953,0.887,5.801c1.468,3.854,3.053,7.663,4.568,11.499c0.338,0.857,0.656,1.732,0.865,2.626
			c0.295,1.261-0.334,2.314-1.572,2.619c-1.691,0.416-3.314,0.207-4.734-0.878c-0.3-0.229-0.575-0.582-0.701-0.935
			c-0.924-2.594-2.509-4.714-4.559-6.512c-1.756-1.54-3.506-3.084-5.28-4.603c-3.03-2.595-2.767-5.886,0.683-8.287
			c0.426-0.297,1.092-0.507,1.233-0.905c0.287-0.803,0.46-1.647,0.592-2.516c0.083-0.546-0.222-0.721-0.672-0.401
			c-2.038,1.449-4.177,2.747-5.537,4.907c-0.343,0.545-0.442,1.355-0.386,2.021c0.298,3.556,2.15,6.294,4.747,8.594
			c1.313,1.164,2.653,2.302,4.008,3.418c2.328,1.916,4.037,4.311,5.363,6.981c0.659,1.325,1.671,1.691,3.03,1.53
			c1.969-0.233,3.756-0.949,5.398-2.028c0.803-0.527,1.053-1.721,0.357-2.627c-2.266-2.958-2.703-6.639-4.071-9.947
			c-1.392-3.364-1.957-6.916-2.229-10.534c-0.205-2.7-0.646-5.383-0.803-8.084c-0.058-0.988,0.371-2.013,0.627-3.008
			c0.104-0.399,0.342-0.768,0.51-1.122c0.234-0.499-0.344-0.983-0.888-1.075c-1.829-0.31-3.565-1.091-5.289-1.272
			c-0.964-0.101-1.95-0.396-2.831-0.809c-2.5-1.174-5.141-0.542-7.836-0.402c-3.748,0.194-7.488,0.547-11.23,0.848
			c-0.232,0.019-0.462,0.07-0.72,0.134c-0.393,0.097-0.684,0.62-0.649,1.171c0.007,0.115,0.014,0.229,0.021,0.344
			c0.034,0.551,0.008,1.01-0.059,1.025s-0.309-0.379-0.54-0.88c-0.038-0.083-0.077-0.168-0.117-0.253
			C41.404,2.184,40.829,2,40.35,2.273c-0.665,0.381-1.327,0.763-1.965,1.181c-0.178,0.117-0.241,0.527-0.228,0.796
			c0.015,0.311,0.051,0.621,0.064,0.94c0.022,0.52-0.265,0.542-0.521,0.052c-0.01-0.02-0.021-0.041-0.032-0.061
			c-0.255-0.49-0.83-0.631-1.285-0.318c-1.073,0.738-2.028,1.507-1.733,2.988c0.108,0.542,0.239,0.931,0.14,0.913
			c-0.099-0.018-0.338-0.406-0.533-0.866c-0.196-0.46-0.661-0.507-1.063-0.128c-0.495,0.466-0.955,0.906-1.112,1.436
			c-0.152,0.513-0.013,1.113,0.115,1.741c0.11,0.541-0.065,0.594-0.328,0.108c-0.03-0.056-0.061-0.112-0.091-0.168
			c-0.263-0.486-0.742-0.52-1.072-0.076c-0.304,0.407-0.585,0.8-0.812,1.221c-0.115,0.215,0.143,0.647,0.262,0.968
			c0.19,0.517,0.388,1.032,0.586,1.546c0.199,0.515,0.286,0.97,0.194,1.015c-0.092,0.045-0.358-0.169-0.595-0.478
			c-0.144-0.186-0.286-0.373-0.425-0.562c-0.145-0.196-0.286-0.394-0.439-0.611c-0.24-0.339-0.665-0.231-0.953,0.241
			c-0.23,0.377-0.438,0.742-0.58,1.13c-0.107,0.297,0.078,0.84,0.317,1.098c0.69,0.743,1.209,1.535,1.366,2.607
			c0.08,0.547-0.242,0.651-0.59,0.222c-0.438-0.539-0.856-1.055-1.284-1.582c-0.348-0.429-0.793-0.416-0.99,0.031
			c-0.122,0.278-0.231,0.549-0.304,0.83c-0.059,0.224,0.101,0.581,0.274,0.775c0.512,0.574,1.034,1.157,1.638,1.626
			c0.725,0.562,1.014,1.276,1.157,2.145c0.09,0.545-0.205,0.677-0.596,0.286c-0.829-0.829-1.626-1.626-2.472-2.472
			c-0.391-0.391-0.825-0.275-0.974,0.257c-0.23,0.824-0.438,1.57-0.598,2.325c-0.044,0.209,0.204,0.556,0.409,0.729
			c1.013,0.854,1.984,1.791,3.111,2.465c0.825,0.494,1.078,1.156,1.233,2.011c0.099,0.543-0.202,0.713-0.636,0.372
			c-1.295-1.015-2.511-1.968-3.793-2.972c-0.435-0.341-0.828-0.171-0.883,0.379c-0.07,0.708-0.133,1.366-0.147,2.026
			c-0.005,0.231,0.282,0.535,0.512,0.694c1.82,1.259,3.629,2.54,5.502,3.718c1.226,0.771,1.496,0.892,1.624,1.974
			c0.065,0.548-0.3,0.763-0.774,0.479c-1.07-0.643-2.107-1.258-3.114-1.92c-1.004-0.661-1.975-1.372-3.057-2.15
			c-0.449-0.322-0.757-0.137-0.691,0.411c0.107,0.893,0.206,1.714,0.354,2.526c0.043,0.239,0.394,0.443,0.633,0.622
			c2.9,2.165,5.813,4.314,8.705,6.49c-8.636,0.578-17.203,0.802-25.443-2.295c-1.206-0.453-1.992,1.386-0.784,1.84
			C16.503,44.155,25.721,43.852,35.006,43.208z"/>
	</g>
</g>
<g>
</g>
<g>
</g>
<g>
</g>
<g>
</g>
<g>
</g>
<g>
</g>
<g>
</g>
<g>
</g>
<g>
</g>
<g>
</g>
<g>
</g>
<g>
</g>
<g>
</g>
<g>
</g>
<g>
</g>
</svg>
